<?xml version="1.0" encoding="utf-8"?>
<!-- Generator: Adobe Illustrator 19.2.1, SVG Export Plug-In . SVG Version: 6.00 Build 0)  -->
<svg version="1.1" id="Layer_1" xmlns="http://www.w3.org/2000/svg" xmlns:xlink="http://www.w3.org/1999/xlink" x="0px" y="0px"
	 viewBox="0 0 357 333" style="enable-background:new 0 0 357 333;" xml:space="preserve">
<style type="text/css">
	.st0{fill:#27AAE1;stroke:#262262;stroke-width:11;stroke-miterlimit:10;}
	.st1{fill:none;stroke:#262262;stroke-width:11;stroke-miterlimit:10;}
	.st2{fill:#262262;stroke:#262262;stroke-width:5;stroke-miterlimit:10;}
</style>
<circle class="st0" cx="174.6" cy="168.4" r="142.5"/>
<polyline class="st1" points="40.7,219.2 42.4,213.9 47.3,198.9 60.4,194.2 63.3,178.2 71.7,185.7 90.5,133 107.5,149 119.7,188.5 
	134.5,156.5 143.2,114.2 155.4,126.4 175.2,71 196.8,117 213.7,145.3 222.2,181 242.9,162.2 270.2,118.9 277.7,139.6 286.2,150.9 
	291.8,168.8 313.4,179.9 "/>
<path class="st2" d="M94.3,158.1L81,206.5l-10.5-4.4l-7.2,9.9L50,232l4.3,2.8c15.6-6.1,25.6-7.1,43.8-12.7c1.8-13.6,3-27.3,2.9-40.9
	L94.3,158.1z"/>
<path class="st2" d="M185.5,136.1l-8.8-25.9l-10.6,40l-13.2-8.5l-9.4,39.5c0,0-22.8,33.4-23.3,34.3c19-5.2,39.2-10,60.5-13.9
	c3-5.3,5.5-10.5,6.3-16.8C190.7,161,186.3,159.7,185.5,136.1z"/>
<path class="st2" d="M265.3,153.7l-14.9,24.8l-16.1,15.7c8.2-0.8,26.9-3,34.8-3.5c-0.1-0.3-0.1-0.6-0.1-0.9
	C268.2,180.2,265.3,153.7,265.3,153.7z"/>
</svg>
